mtllib textured-cornell-box.mtl
o logo
usemtl Leopard
v -9.857894 2.400599 1.000003
v -5.817894 -4.479400 1.000001
v -8.657894 4.440598 1.000003
v -4.617894 -2.519401 1.000002
v -4.257894 -2.719400 1.000002
v -5.417894 -4.719400 1.000001
v -0.297894 -4.759400 1.000001
v -2.657894 -5.119401 1.000001
v -0.177894 -9.479401 1.000000
v -0.017894 -5.119401 1.000001
v 2.142106 -5.479400 1.000001
v 1.502106 -2.479401 1.000002
v 3.862106 -2.439401 1.000002
v 0.902106 -2.719400 1.000002
v -8.337893 4.680600 1.000003
v -6.137894 0.880599 1.000002
v -4.697894 2.360600 1.000003
v -4.297894 -2.279401 1.000002
v -3.177894 -0.239401 1.000002
v -3.377893 4.680600 1.000003
v 0.902106 -2.279401 1.000002
v -0.257894 -0.239401 1.000002
v -4.217894 2.400599 1.000003
v -3.017894 0.320600 1.000002
v -1.577894 6.920600 1.000003
v -0.417893 4.840600 1.000003
v -2.617894 0.160600 1.000002
v -0.297894 0.160600 1.000002
v 1.222106 2.600599 1.000003
v -0.017894 4.680600 1.000003
v -0.057894 5.080600 1.000003
v 6.822105 7.120599 1.000003
v -1.217894 7.120599 1.000003
v 7.942106 5.080600 1.000003
v 3.542106 4.680600 1.000003
v 4.182106 2.600599 1.000003
v 7.982105 4.680600 1.000003
v 5.502106 0.440599 1.000002
v 0.102106 0.040600 1.000002
v 1.262106 2.000600 1.000002
v 0.262106 -9.639400 1.000000
v 2.582106 -9.639400 1.000000
v 4.262106 -2.719400 1.000002
v 6.582106 -2.719400 1.000002
v 1.582106 2.200600 1.000002
v 4.262106 -2.279401 1.000002
v 3.982105 2.200600 1.000002
v 6.582106 -2.279401 1.000002
v -8.657894 4.440598 -0.999997
v -5.817894 -4.479400 -0.999999
v -9.857894 2.400599 -0.999998
v -4.617894 -2.519401 -0.999998
v -0.297894 -4.759400 -0.999999
v -5.417894 -4.719400 -0.999999
v -4.257894 -2.719400 -0.999998
v -0.017894 -5.119401 -0.999999
v -0.177894 -9.479400 -0.999999
v -2.657894 -5.119401 -0.999999
v 2.142106 -5.479400 -0.999999
v 1.502106 -2.479401 -0.999998
v 3.862106 -2.439401 -0.999998
v 0.902106 -2.719400 -0.999998
v -6.137894 0.880599 -0.999998
v -8.337893 4.680600 -0.999997
v -4.697894 2.360600 -0.999998
v -3.177894 -0.239401 -0.999998
v -4.297894 -2.279401 -0.999998
v -3.377893 4.680600 -0.999997
v 0.902106 -2.279401 -0.999998
v -0.257894 -0.239401 -0.999998
v -1.577894 6.920600 -0.999997
v -3.017894 0.320600 -0.999998
v -4.217894 2.400599 -0.999998
v -0.417893 4.840600 -0.999997
v -0.297894 0.160600 -0.999998
v -2.617894 0.160600 -0.999998
v 1.222106 2.600599 -0.999997
v -0.017894 4.680600 -0.999997
v 6.822105 7.120599 -0.999997
v -0.057894 5.080600 -0.999997
v -1.217894 7.120599 -0.999997
v 7.942106 5.080600 -0.999997
v 3.542106 4.680600 -0.999997
v 4.182106 2.600599 -0.999997
v 7.982105 4.680600 -0.999997
v 5.502106 0.440599 -0.999998
v 1.262106 2.000600 -0.999998
v 0.102106 0.040600 -0.999998
v 4.262106 -2.719400 -0.999998
v 2.582106 -9.639400 -1.000000
v 0.262106 -9.639400 -1.000000
v 6.582106 -2.719400 -0.999998
v 3.982105 2.200600 -0.999998
v 4.262106 -2.279401 -0.999998
v 1.582106 2.200600 -0.999998
v 6.582106 -2.279401 -0.999998
vt 0.000000 0.718377
vt 0.226457 0.307876
vt 0.067265 0.840095
vt 0.293722 0.424821
vt 0.313901 0.412888
vt 0.248879 0.293556
vt 0.535874 0.291169
vt 0.403587 0.269690
vt 0.542601 0.009547
vt 0.551570 0.269690
vt 0.672646 0.248210
vt 0.636771 0.427208
vt 0.769058 0.429594
vt 0.603139 0.412888
vt 0.085202 0.854415
vt 0.208520 0.627685
vt 0.289238 0.715990
vt 0.311659 0.439141
vt 0.374439 0.560859
vt 0.363229 0.854415
vt 0.603139 0.439141
vt 0.538117 0.560859
vt 0.316143 0.718377
vt 0.383408 0.594272
vt 0.464126 0.988067
vt 0.529148 0.863962
vt 0.405830 0.584726
vt 0.535874 0.584726
vt 0.621076 0.730310
vt 0.551570 0.854415
vt 0.549327 0.878282
vt 0.934978 1.000000
vt 0.484305 1.000000
vt 0.997758 0.878282
vt 0.751121 0.854415
vt 0.786996 0.730310
vt 1.000000 0.854415
vt 0.860987 0.601432
vt 0.558296 0.577566
vt 0.623318 0.694511
vt 0.567265 0.000000
vt 0.697309 0.000000
vt 0.791480 0.412888
vt 0.921525 0.412888
vt 0.641256 0.706444
vt 0.791480 0.439141
vt 0.775785 0.706444
vt 0.921525 0.439141
vt 0.067265 0.840095
vt 0.226457 0.307876
vt 0.000000 0.718377
vt 0.293722 0.424821
vt 0.535874 0.291169
vt 0.248879 0.293556
vt 0.313901 0.412888
vt 0.551570 0.269690
vt 0.542601 0.009547
vt 0.403587 0.269690
vt 0.672646 0.248210
vt 0.636771 0.427208
vt 0.769058 0.429594
vt 0.603139 0.412888
vt 0.208520 0.627685
vt 0.085202 0.854415
vt 0.289238 0.715990
vt 0.374439 0.560859
vt 0.311659 0.439141
vt 0.363229 0.854415
vt 0.603139 0.439141
vt 0.538117 0.560859
vt 0.464126 0.988067
vt 0.383408 0.594272
vt 0.316143 0.718377
vt 0.529148 0.863962
vt 0.535874 0.584726
vt 0.405830 0.584726
vt 0.621076 0.730310
vt 0.551570 0.854415
vt 0.934978 1.000000
vt 0.549327 0.878282
vt 0.484305 1.000000
vt 0.997758 0.878282
vt 0.751121 0.854415
vt 0.786996 0.730310
vt 1.000000 0.854415
vt 0.860987 0.601432
vt 0.623318 0.694511
vt 0.558296 0.577566
vt 0.791480 0.412888
vt 0.697309 0.000000
vt 0.567265 0.000000
vt 0.921525 0.412888
vt 0.775785 0.706444
vt 0.791480 0.439141
vt 0.641256 0.706444
vt 0.921525 0.439141
vn 0.0000 -0.0000 1.0000
vn 0.0000 0.0000 -1.0000
vn -0.8623 -0.5064 0.0000
vn -0.8619 0.5070 0.0000
vn 0.8529 -0.5222 0.0000
vn 0.8649 0.5020 0.0000
vn -0.8650 0.5017 0.0000
vn -0.0078 -1.0000 0.0000
vn 0.0000 1.0000 0.0000
vn 0.8619 -0.5070 0.0000
vn -0.8692 -0.4944 0.0000
vn 0.8650 -0.5017 0.0000
vn 0.8629 0.5053 0.0000
vn 0.8703 -0.4924 0.0000
vn -0.8606 0.5093 0.0000
vn -0.8742 -0.4856 0.0000
vn -0.8666 0.4990 0.0000
vn 0.0000 -1.0000 0.0000
vn -0.8658 0.5004 0.0000
vn 0.8658 -0.5004 0.0000
vn -0.8582 -0.5134 0.0000
vn 0.8649 0.5019 0.0000
vn -0.8654 -0.5010 0.0000
vn -0.8642 -0.5032 0.0000
vn 0.8693 0.4943 0.0000
vn 0.8633 0.5047 0.0000
vn 0.8692 -0.4945 0.0000
vn -0.8662 -0.4997 0.0000
vn -0.8635 0.5043 0.0000
vn 0.8668 -0.4986 0.0000
vn 0.8734 0.4871 0.0000
vn -0.8693 -0.4943 0.0000
vn 0.8766 0.4813 0.0000
vn 0.8632 -0.5049 0.0000
vn -0.8533 -0.5214 0.0000
vn -0.8668 0.4986 0.0000
vn 0.8488 -0.5287 0.0000
f 1/1/1 2/2/1 3/3/1
f 3/3/1 2/2/1 4/4/1
f 5/5/1 6/6/1 7/7/1
f 8/8/1 9/9/1 10/10/1
f 11/11/1 10/10/1 9/9/1
f 12/12/1 10/10/1 11/11/1
f 12/12/1 11/11/1 13/13/1
f 14/14/1 5/5/1 7/7/1
f 15/15/1 16/16/1 17/17/1
f 16/16/1 18/18/1 19/19/1
f 16/16/1 19/19/1 17/17/1
f 15/15/1 17/17/1 20/20/1
f 21/21/1 19/19/1 18/18/1
f 19/19/1 21/21/1 22/22/1
f 23/23/1 24/24/1 25/25/1
f 24/24/1 26/26/1 25/25/1
f 27/27/1 28/28/1 29/29/1
f 27/27/1 29/29/1 30/30/1
f 31/31/1 32/32/1 33/33/1
f 31/31/1 34/34/1 32/32/1
f 35/35/1 30/30/1 29/29/1
f 29/29/1 36/36/1 35/35/1
f 35/35/1 36/36/1 37/37/1
f 36/36/1 38/38/1 37/37/1
f 39/39/1 12/12/1 40/40/1
f 40/40/1 12/12/1 13/13/1
f 41/41/1 42/42/1 43/43/1
f 43/43/1 42/42/1 44/44/1
f 45/45/1 46/46/1 47/47/1
f 46/46/1 48/48/1 47/47/1
f 49/49/2 50/50/2 51/51/2
f 50/50/2 49/49/2 52/52/2
f 53/53/2 54/54/2 55/55/2
f 56/56/2 57/57/2 58/58/2
f 59/59/2 57/57/2 56/56/2
f 60/60/2 59/59/2 56/56/2
f 59/59/2 60/60/2 61/61/2
f 53/53/2 55/55/2 62/62/2
f 63/63/2 64/64/2 65/65/2
f 66/66/2 67/67/2 63/63/2
f 65/65/2 66/66/2 63/63/2
f 68/68/2 65/65/2 64/64/2
f 69/69/2 67/67/2 66/66/2
f 70/70/2 69/69/2 66/66/2
f 71/71/2 72/72/2 73/73/2
f 71/71/2 74/74/2 72/72/2
f 75/75/2 76/76/2 77/77/2
f 78/78/2 77/77/2 76/76/2
f 79/79/2 80/80/2 81/81/2
f 82/82/2 80/80/2 79/79/2
f 83/83/2 77/77/2 78/78/2
f 83/83/2 84/84/2 77/77/2
f 84/84/2 83/83/2 85/85/2
f 84/84/2 85/85/2 86/86/2
f 87/87/2 60/60/2 88/88/2
f 60/60/2 87/87/2 61/61/2
f 89/89/2 90/90/2 91/91/2
f 90/90/2 89/89/2 92/92/2
f 93/93/2 94/94/2 95/95/2
f 93/93/2 96/96/2 94/94/2
f 2/2/3 1/1/3 50/50/3
f 51/51/3 50/50/3 1/1/3
f 1/1/4 3/3/4 49/49/4
f 1/1/4 49/49/4 51/51/4
f 52/52/5 4/4/5 2/2/5
f 2/2/5 50/50/5 52/52/5
f 3/3/6 4/4/6 52/52/6
f 3/3/6 52/52/6 49/49/6
f 6/6/7 5/5/7 55/55/7
f 6/6/7 55/55/7 54/54/7
f 7/7/8 6/6/8 53/53/8
f 6/6/8 54/54/8 53/53/8
f 5/5/9 14/14/9 62/62/9
f 5/5/9 62/62/9 55/55/9
f 14/14/10 7/7/10 62/62/10
f 62/62/10 7/7/10 53/53/10
f 9/9/11 8/8/11 57/57/11
f 58/58/11 57/57/11 8/8/11
f 8/8/9 10/10/9 56/56/9
f 8/8/9 56/56/9 58/58/9
f 9/9/12 59/59/12 11/11/12
f 9/9/12 57/57/12 59/59/12
f 13/13/13 87/87/13 40/40/13
f 13/13/13 61/61/13 87/87/13
f 13/13/14 11/11/14 59/59/14
f 13/13/14 59/59/14 61/61/14
f 39/39/15 40/40/15 88/88/15
f 88/88/15 40/40/15 87/87/15
f 39/39/16 60/60/16 12/12/16
f 60/60/16 39/39/16 88/88/16
f 12/12/17 56/56/17 10/10/17
f 12/12/17 60/60/17 56/56/17
f 42/42/18 41/41/18 90/90/18
f 91/91/18 90/90/18 41/41/18
f 41/41/19 43/43/19 89/89/19
f 41/41/19 89/89/19 91/91/19
f 92/92/20 44/44/20 42/42/20
f 42/42/20 90/90/20 92/92/20
f 43/43/9 44/44/9 92/92/9
f 43/43/9 92/92/9 89/89/9
f 46/46/21 45/45/21 94/94/21
f 95/95/21 94/94/21 45/45/21
f 45/45/9 47/47/9 93/93/9
f 45/45/9 93/93/9 95/95/9
f 96/96/18 48/48/18 46/46/18
f 46/46/18 94/94/18 96/96/18
f 48/48/22 93/93/22 47/47/22
f 48/48/22 96/96/22 93/93/22
f 15/15/9 20/20/9 68/68/9
f 15/15/9 68/68/9 64/64/9
f 16/16/23 15/15/23 63/63/23
f 64/64/23 63/63/23 15/15/23
f 69/69/18 21/21/18 18/18/18
f 67/67/18 69/69/18 18/18/18
f 18/18/24 16/16/24 63/63/24
f 18/18/24 63/63/24 67/67/24
f 22/22/25 21/21/25 70/70/25
f 69/69/25 70/70/25 21/21/25
f 19/19/9 22/22/9 66/66/9
f 66/66/9 22/22/9 70/70/9
f 65/65/26 17/17/26 19/19/26
f 19/19/26 66/66/26 65/65/26
f 20/20/27 17/17/27 68/68/27
f 65/65/27 68/68/27 17/17/27
f 24/24/28 23/23/28 72/72/28
f 73/73/28 72/72/28 23/23/28
f 23/23/29 25/25/29 71/71/29
f 23/23/29 71/71/29 73/73/29
f 74/74/30 26/26/30 24/24/30
f 24/24/30 72/72/30 74/74/30
f 25/25/31 26/26/31 74/74/31
f 25/25/31 74/74/31 71/71/31
f 31/31/32 33/33/32 80/80/32
f 80/80/32 33/33/32 81/81/32
f 33/33/9 32/32/9 79/79/9
f 33/33/9 79/79/9 81/81/9
f 82/82/18 34/34/18 31/31/18
f 80/80/18 82/82/18 31/31/18
f 32/32/33 34/34/33 82/82/33
f 32/32/33 82/82/33 79/79/33
f 37/37/34 38/38/34 86/86/34
f 37/37/34 86/86/34 85/85/34
f 35/35/9 37/37/9 83/83/9
f 83/83/9 37/37/9 85/85/9
f 38/38/35 36/36/35 84/84/35
f 38/38/35 84/84/35 86/86/35
f 28/28/18 27/27/18 75/75/18
f 76/76/18 75/75/18 27/27/18
f 27/27/36 30/30/36 78/78/36
f 27/27/36 78/78/36 76/76/36
f 29/29/37 28/28/37 77/77/37
f 28/28/37 75/75/37 77/77/37
f 30/30/9 35/35/9 83/83/9
f 30/30/9 83/83/9 78/78/9
f 84/84/18 36/36/18 29/29/18
f 29/29/18 77/77/18 84/84/18
